<svg width="1000" height="475" viewBox="0 0 1000 475" fill="none" xmlns="http://www.w3.org/2000/svg">
<path d="M232 362C255.92 345.2 272.17 311.603 264.837 271.567H259.032V247H320.715C328.491 319.759 301.238 357.756 232 362Z" fill="#C2C2C2"/>
<circle cx="287" cy="188" r="40" fill="#C2C2C2"/>
<path d="M362.827 214.728L358.507 215.016L355.915 206.664C369.355 203.4 379.243 200.136 385.578 196.872C391.915 193.608 395.467 191.784 396.235 191.4C398.731 191.4 400.171 191.592 400.555 191.976C401.323 192.744 401.899 198.888 402.283 210.408C417.643 199.272 431.563 193.704 444.043 193.704C460.555 193.704 472.075 199.464 478.603 210.984C494.731 199.464 509.707 193.704 523.531 193.704C551.371 193.704 565.291 208.008 565.291 236.616V300.552C565.291 304.008 566.155 306.408 567.883 307.752C569.611 308.904 573.835 309.768 580.555 310.344L583.147 321.864L554.923 321L523.819 321.864L521.515 310.344C530.731 309.576 536.203 308.808 537.931 308.04C539.851 307.08 540.811 304.584 540.811 300.552V246.408C540.811 234.12 538.411 225.576 533.611 220.776C528.811 215.784 521.323 213.288 511.147 213.288C501.163 213.288 491.659 216.456 482.635 222.792C483.595 227.592 484.075 232.2 484.075 236.616V300.552C484.075 304.008 484.939 306.408 486.667 307.752C488.395 308.904 492.619 309.768 499.339 310.344L501.931 321.864L473.707 321L442.603 321.864L440.299 310.344C449.515 309.576 454.987 308.808 456.715 308.04C458.635 307.08 459.595 304.584 459.595 300.552V246.408C459.595 234.12 457.195 225.48 452.395 220.488C447.787 215.496 440.875 213 431.659 213C422.443 213 412.843 215.688 402.859 221.064V300.552C402.859 304.008 403.723 306.408 405.451 307.752C407.179 308.904 411.403 309.768 418.123 310.344L420.715 321.864L392.491 321L361.387 321.864L359.083 310.344C368.299 309.576 373.771 308.808 375.499 308.04C377.419 307.08 378.379 304.584 378.379 300.552V233.16C378.379 226.248 377.131 221.448 374.635 218.76C372.139 216.072 368.203 214.728 362.827 214.728Z" fill="#C2C2C2"/>
<path d="M362.827 214.728V211.728H362.727L362.627 211.735L362.827 214.728ZM358.507 215.016L355.641 215.905L356.343 218.167L358.706 218.009L358.507 215.016ZM355.915 206.664L355.207 203.749L352.103 204.503L353.049 207.553L355.915 206.664ZM385.578 196.872L384.205 194.205L384.205 194.205L385.578 196.872ZM396.235 191.4V188.4H395.526L394.893 188.717L396.235 191.4ZM400.555 191.976L398.433 194.097L398.433 194.097L400.555 191.976ZM402.283 210.408L399.284 210.508L399.472 216.151L404.043 212.837L402.283 210.408ZM478.603 210.984L475.992 212.463L477.635 215.362L480.346 213.425L478.603 210.984ZM567.883 307.752L566.041 310.12L566.127 310.187L566.218 310.248L567.883 307.752ZM580.555 310.344L583.481 309.685L582.999 307.543L580.811 307.355L580.555 310.344ZM583.147 321.864L583.055 324.863L586.923 324.981L586.073 321.205L583.147 321.864ZM554.923 321L555.014 318.001L554.927 317.999L554.839 318.001L554.923 321ZM523.819 321.864L520.877 322.452L521.373 324.933L523.902 324.863L523.819 321.864ZM521.515 310.344L521.265 307.354L517.913 307.634L518.573 310.932L521.515 310.344ZM537.931 308.04L539.149 310.781L539.211 310.754L539.272 310.723L537.931 308.04ZM533.611 220.776L531.448 222.855L531.468 222.877L531.489 222.897L533.611 220.776ZM482.635 222.792L480.911 220.337L479.309 221.461L479.693 223.38L482.635 222.792ZM486.667 307.752L484.825 310.12L484.911 310.187L485.002 310.248L486.667 307.752ZM499.339 310.344L502.265 309.685L501.783 307.543L499.595 307.355L499.339 310.344ZM501.931 321.864L501.839 324.863L505.707 324.981L504.857 321.205L501.931 321.864ZM473.707 321L473.798 318.001L473.711 317.999L473.623 318.001L473.707 321ZM442.603 321.864L439.661 322.452L440.157 324.933L442.686 324.863L442.603 321.864ZM440.299 310.344L440.049 307.354L436.697 307.634L437.357 310.932L440.299 310.344ZM456.715 308.04L457.933 310.781L457.995 310.754L458.056 310.723L456.715 308.04ZM452.395 220.488L450.19 222.523L450.211 222.545L450.232 222.567L452.395 220.488ZM402.859 221.064L401.436 218.423L399.859 219.272V221.064H402.859ZM405.451 307.752L403.609 310.12L403.695 310.187L403.786 310.248L405.451 307.752ZM418.123 310.344L421.049 309.685L420.567 307.543L418.379 307.355L418.123 310.344ZM420.715 321.864L420.623 324.863L424.491 324.981L423.641 321.205L420.715 321.864ZM392.491 321L392.582 318.001L392.495 317.999L392.407 318.001L392.491 321ZM361.387 321.864L358.445 322.452L358.941 324.933L361.47 324.863L361.387 321.864ZM359.083 310.344L358.833 307.354L355.481 307.634L356.141 310.932L359.083 310.344ZM375.499 308.04L376.717 310.781L376.779 310.754L376.84 310.723L375.499 308.04ZM362.627 211.735L358.307 212.023L358.706 218.009L363.026 217.721L362.627 211.735ZM361.372 214.127L358.78 205.775L353.049 207.553L355.641 215.905L361.372 214.127ZM356.622 209.579C370.12 206.301 380.29 202.971 386.952 199.539L384.205 194.205C378.195 197.301 368.589 200.499 355.207 203.749L356.622 209.579ZM386.952 199.539C393.301 196.268 396.829 194.457 397.576 194.083L394.893 188.717C394.104 189.111 390.528 190.948 384.205 194.205L386.952 199.539ZM396.235 194.4C397.429 194.4 398.262 194.447 398.79 194.518C398.915 194.534 399.01 194.551 399.077 194.564C399.146 194.579 399.172 194.587 399.165 194.585C399.162 194.584 399.091 194.562 398.98 194.504C398.876 194.45 398.663 194.327 398.433 194.097L402.676 189.855C402.07 189.249 401.359 188.985 400.972 188.863C400.517 188.72 400.036 188.631 399.583 188.57C398.671 188.449 397.536 188.4 396.235 188.4V194.4ZM398.433 194.097C398.012 193.677 397.928 193.29 397.994 193.484C398.022 193.567 398.079 193.768 398.15 194.133C398.29 194.854 398.435 195.941 398.576 197.44C398.855 200.421 399.093 204.766 399.284 210.508L405.281 210.308C405.088 204.53 404.846 200.043 404.549 196.88C404.402 195.307 404.235 193.994 404.039 192.987C403.942 192.488 403.825 191.993 403.673 191.548C403.559 191.214 403.289 190.467 402.676 189.855L398.433 194.097ZM404.043 212.837C419.142 201.89 432.447 196.704 444.043 196.704V190.704C430.678 190.704 416.143 196.654 400.522 207.979L404.043 212.837ZM444.043 196.704C459.786 196.704 470.135 202.126 475.992 212.463L481.213 209.505C474.014 196.802 461.323 190.704 444.043 190.704V196.704ZM480.346 213.425C496.178 202.117 510.55 196.704 523.531 196.704V190.704C508.863 190.704 493.283 196.811 476.859 208.543L480.346 213.425ZM523.531 196.704C536.967 196.704 546.498 200.151 552.701 206.524C558.918 212.913 562.291 222.754 562.291 236.616H568.291C568.291 221.87 564.703 210.255 557 202.34C549.283 194.409 537.934 190.704 523.531 190.704V196.704ZM562.291 236.616V300.552H568.291V236.616H562.291ZM562.291 300.552C562.291 304.394 563.241 307.943 566.041 310.12L569.724 305.384C569.068 304.873 568.291 303.622 568.291 300.552H562.291ZM566.218 310.248C567.596 311.166 569.574 311.759 571.745 312.203C574.016 312.668 576.879 313.04 580.298 313.333L580.811 307.355C577.51 307.072 574.901 306.724 572.948 306.325C570.895 305.905 569.897 305.49 569.547 305.256L566.218 310.248ZM577.628 311.003L580.22 322.523L586.073 321.205L583.481 309.685L577.628 311.003ZM583.238 318.865L555.014 318.001L554.831 323.999L583.055 324.863L583.238 318.865ZM554.839 318.001L523.735 318.865L523.902 324.863L555.006 323.999L554.839 318.001ZM526.76 321.276L524.456 309.756L518.573 310.932L520.877 322.452L526.76 321.276ZM521.764 313.334C526.396 312.948 530.131 312.558 532.947 312.163C535.618 311.788 537.839 311.364 539.149 310.781L536.712 305.299C536.294 305.484 534.915 305.828 532.114 306.221C529.458 306.594 525.849 306.972 521.265 307.354L521.764 313.334ZM539.272 310.723C542.87 308.924 543.811 304.717 543.811 300.552H537.811C537.811 304.451 536.831 305.236 536.589 305.357L539.272 310.723ZM543.811 300.552V246.408H537.811V300.552H543.811ZM543.811 246.408C543.811 233.911 541.405 224.328 535.732 218.655L531.489 222.897C535.416 226.824 537.811 234.329 537.811 246.408H543.811ZM535.773 218.697C530.187 212.888 521.755 210.288 511.147 210.288V216.288C520.89 216.288 527.434 218.68 531.448 222.855L535.773 218.697ZM511.147 210.288C500.481 210.288 490.384 213.685 480.911 220.337L484.358 225.247C492.933 219.227 501.844 216.288 511.147 216.288V210.288ZM479.693 223.38C480.618 228.007 481.075 232.418 481.075 236.616H487.075C487.075 231.982 486.571 227.177 485.576 222.204L479.693 223.38ZM481.075 236.616V300.552H487.075V236.616H481.075ZM481.075 300.552C481.075 304.394 482.025 307.943 484.825 310.12L488.508 305.384C487.852 304.873 487.075 303.622 487.075 300.552H481.075ZM485.002 310.248C486.38 311.166 488.358 311.759 490.529 312.203C492.8 312.668 495.663 313.04 499.082 313.333L499.595 307.355C496.294 307.072 493.685 306.724 491.732 306.325C489.679 305.905 488.681 305.49 488.331 305.256L485.002 310.248ZM496.412 311.003L499.004 322.523L504.857 321.205L502.265 309.685L496.412 311.003ZM502.022 318.865L473.798 318.001L473.615 323.999L501.839 324.863L502.022 318.865ZM473.623 318.001L442.519 318.865L442.686 324.863L473.79 323.999L473.623 318.001ZM445.544 321.276L443.24 309.756L437.357 310.932L439.661 322.452L445.544 321.276ZM440.548 313.334C445.18 312.948 448.915 312.558 451.731 312.163C454.402 311.788 456.623 311.364 457.933 310.781L455.496 305.299C455.078 305.484 453.699 305.828 450.898 306.221C448.242 306.594 444.633 306.972 440.049 307.354L440.548 313.334ZM458.056 310.723C461.654 308.924 462.595 304.717 462.595 300.552H456.595C456.595 304.451 455.615 305.236 455.373 305.357L458.056 310.723ZM462.595 300.552V246.408H456.595V300.552H462.595ZM462.595 246.408C462.595 233.893 460.182 224.258 454.557 218.409L450.232 222.567C454.207 226.702 456.595 234.347 456.595 246.408H462.595ZM454.599 218.453C449.242 212.65 441.401 210 431.659 210V216C440.348 216 446.331 218.342 450.19 222.523L454.599 218.453ZM431.659 210C421.844 210 411.758 212.865 401.436 218.423L404.281 223.705C413.927 218.511 423.041 216 431.659 216V210ZM399.859 221.064V300.552H405.859V221.064H399.859ZM399.859 300.552C399.859 304.394 400.809 307.943 403.609 310.12L407.292 305.384C406.636 304.873 405.859 303.622 405.859 300.552H399.859ZM403.786 310.248C405.164 311.166 407.142 311.759 409.313 312.203C411.584 312.668 414.447 313.04 417.866 313.333L418.379 307.355C415.078 307.072 412.469 306.724 410.516 306.325C408.463 305.905 407.465 305.49 407.115 305.256L403.786 310.248ZM415.196 311.003L417.788 322.523L423.641 321.205L421.049 309.685L415.196 311.003ZM420.806 318.865L392.582 318.001L392.399 323.999L420.623 324.863L420.806 318.865ZM392.407 318.001L361.303 318.865L361.47 324.863L392.574 323.999L392.407 318.001ZM364.328 321.276L362.024 309.756L356.141 310.932L358.445 322.452L364.328 321.276ZM359.332 313.334C363.964 312.948 367.699 312.558 370.515 312.163C373.186 311.788 375.407 311.364 376.717 310.781L374.28 305.299C373.862 305.484 372.483 305.828 369.682 306.221C367.026 306.594 363.417 306.972 358.833 307.354L359.332 313.334ZM376.84 310.723C380.438 308.924 381.379 304.717 381.379 300.552H375.379C375.379 304.451 374.399 305.236 374.157 305.357L376.84 310.723ZM381.379 300.552V233.16H375.379V300.552H381.379ZM381.379 233.16C381.379 226.083 380.14 220.28 376.833 216.719L372.436 220.801C374.121 222.616 375.379 226.413 375.379 233.16H381.379ZM376.833 216.719C373.549 213.182 368.645 211.728 362.827 211.728V217.728C367.76 217.728 370.728 218.962 372.436 220.801L376.833 216.719Z" fill="#C2C2C2"/>
<path d="M202.996 191.088C203.764 192.048 204.148 195.216 204.148 200.592C204.148 205.776 203.764 209.52 202.996 211.824L113.428 262.8V263.952L202.996 315.216C203.956 320.592 204.436 325.104 204.436 328.752C204.436 332.208 203.956 334.704 202.996 336.24L90.964 274.896C90.004 273.936 89.044 271.152 88.084 266.544C87.316 261.936 86.932 258.96 86.932 257.616C86.932 256.08 87.028 255.12 87.22 254.736L202.996 191.088Z" fill="#C2C2C2"/>
<path d="M202.996 191.088L206.9 187.965L204.273 184.68L200.587 186.706L202.996 191.088ZM202.996 211.824L205.469 216.17L207.134 215.222L207.739 213.405L202.996 211.824ZM113.428 262.8L110.955 258.454L108.428 259.893V262.8H113.428ZM113.428 263.952H108.428V266.851L110.944 268.291L113.428 263.952ZM202.996 315.216L207.918 314.337L207.507 312.037L205.48 310.877L202.996 315.216ZM202.996 336.24L200.595 340.626L204.734 342.892L207.236 338.89L202.996 336.24ZM90.964 274.896L87.4285 278.432L87.9347 278.938L88.5626 279.282L90.964 274.896ZM88.084 266.544L83.152 267.366L83.1686 267.465L83.1891 267.564L88.084 266.544ZM87.22 254.736L84.8112 250.354L83.4451 251.106L82.7479 252.5L87.22 254.736ZM199.092 194.211C198.66 193.672 198.606 193.288 198.684 193.566C198.736 193.752 198.818 194.136 198.896 194.786C199.053 196.081 199.148 197.989 199.148 200.592H209.148C209.148 197.819 209.051 195.455 208.824 193.582C208.71 192.648 208.552 191.724 208.316 190.878C208.106 190.124 207.716 188.984 206.9 187.965L199.092 194.211ZM199.148 200.592C199.148 205.706 198.748 208.756 198.253 210.243L207.739 213.405C208.78 210.284 209.148 205.846 209.148 200.592H199.148ZM200.523 207.478L110.955 258.454L115.901 267.146L205.469 216.17L200.523 207.478ZM108.428 262.8V263.952H118.428V262.8H108.428ZM110.944 268.291L200.512 319.555L205.48 310.877L115.912 259.612L110.944 268.291ZM198.074 316.095C199.005 321.309 199.436 325.505 199.436 328.752H209.436C209.436 324.703 208.907 319.875 207.918 314.337L198.074 316.095ZM199.436 328.752C199.436 331.986 198.943 333.291 198.756 333.59L207.236 338.89C208.969 336.117 209.436 332.43 209.436 328.752H199.436ZM205.397 331.854L93.3654 270.51L88.5626 279.282L200.595 340.626L205.397 331.854ZM94.4995 271.36C94.7715 271.632 94.8111 271.783 94.6931 271.552C94.594 271.359 94.4417 271.012 94.2509 270.458C93.8678 269.347 93.438 267.728 92.9789 265.524L83.1891 267.564C83.69 269.968 84.2202 272.045 84.7971 273.718C85.3006 275.178 86.0773 277.08 87.4285 278.432L94.4995 271.36ZM93.016 265.722C92.229 261 91.932 258.463 91.932 257.616H81.932C81.932 259.457 82.403 262.872 83.152 267.366L93.016 265.722ZM91.932 257.616C91.932 256.929 91.9544 256.489 91.9792 256.242C91.9915 256.119 91.9979 256.11 91.983 256.18C91.9748 256.218 91.9551 256.304 91.9171 256.423C91.8808 256.537 91.8119 256.733 91.6921 256.972L82.7479 252.5C82.2071 253.581 82.0807 254.728 82.0288 255.246C81.9576 255.959 81.932 256.767 81.932 257.616H91.932ZM89.6288 259.118L205.405 195.47L200.587 186.706L84.8112 250.354L89.6288 259.118Z" fill="#C2C2C2"/>
<path d="M673.077 130.608C676.341 129.456 679.797 128.88 683.445 128.88C687.093 128.88 689.877 129.264 691.797 130.032L605.685 354.384C604.149 356.496 599.637 357.552 592.149 357.552C590.037 357.552 588.309 357.36 586.965 356.976L673.077 130.608ZM838.431 254.736C838.623 255.312 838.719 256.272 838.719 257.616C838.719 258.96 838.335 261.936 837.567 266.544C836.799 270.96 835.839 273.744 834.687 274.896L722.655 336.24C721.695 334.704 721.215 332.208 721.215 328.752C721.215 325.104 721.695 320.592 722.655 315.216L812.223 263.952V262.8L722.655 211.824C721.887 209.52 721.503 205.776 721.503 200.592C721.503 195.216 721.887 192.048 722.655 191.088L838.431 254.736Z" fill="#C2C2C2"/>
<path d="M673.077 130.608L671.413 125.893L669.227 126.664L668.403 128.83L673.077 130.608ZM691.797 130.032L696.465 131.824L698.231 127.221L693.654 125.39L691.797 130.032ZM605.685 354.384L609.728 357.325L610.116 356.791L610.353 356.176L605.685 354.384ZM586.965 356.976L582.291 355.198L580.355 360.288L585.591 361.784L586.965 356.976ZM674.741 135.323C677.442 134.37 680.333 133.88 683.445 133.88V123.88C679.261 123.88 675.239 124.542 671.413 125.893L674.741 135.323ZM683.445 133.88C686.867 133.88 688.899 134.258 689.94 134.674L693.654 125.39C690.854 124.27 687.318 123.88 683.445 123.88V133.88ZM687.129 128.24L601.017 352.592L610.353 356.176L696.465 131.824L687.129 128.24ZM601.641 351.443C601.95 351.018 601.912 351.446 600.009 351.892C598.283 352.295 595.713 352.552 592.149 352.552V362.552C596.072 362.552 599.502 362.281 602.288 361.628C604.897 361.018 607.883 359.862 609.728 357.325L601.641 351.443ZM592.149 352.552C590.29 352.552 589.07 352.377 588.338 352.168L585.591 361.784C587.547 362.343 589.783 362.552 592.149 362.552V352.552ZM591.638 358.754L677.75 132.386L668.403 128.83L582.291 355.198L591.638 358.754ZM838.431 254.736L843.175 253.155L842.556 251.298L840.84 250.354L838.431 254.736ZM837.567 266.544L842.493 267.401L842.496 267.383L842.499 267.366L837.567 266.544ZM834.687 274.896L837.089 279.282L837.717 278.938L838.223 278.432L834.687 274.896ZM722.655 336.24L718.415 338.89L720.917 342.892L725.057 340.626L722.655 336.24ZM722.655 315.216L720.172 310.877L718.144 312.037L717.733 314.337L722.655 315.216ZM812.223 263.952L814.707 268.291L817.223 266.851V263.952H812.223ZM812.223 262.8H817.223V259.893L814.697 258.454L812.223 262.8ZM722.655 211.824L717.912 213.405L718.518 215.222L720.182 216.17L722.655 211.824ZM722.655 191.088L725.064 186.706L721.378 184.68L718.751 187.965L722.655 191.088ZM833.688 256.317C833.647 256.194 833.638 256.133 833.643 256.161C833.647 256.185 833.659 256.256 833.672 256.386C833.699 256.65 833.719 257.051 833.719 257.616H843.719C843.719 256.226 843.643 254.559 843.175 253.155L833.688 256.317ZM833.719 257.616C833.719 258.463 833.422 261 832.635 265.722L842.499 267.366C843.248 262.872 843.719 259.457 843.719 257.616H833.719ZM832.641 265.687C832.282 267.753 831.905 269.268 831.545 270.314C831.143 271.478 830.917 271.595 831.152 271.36L838.223 278.432C839.61 277.045 840.44 275.194 840.998 273.574C841.598 271.836 842.085 269.751 842.493 267.401L832.641 265.687ZM832.286 270.51L720.254 331.854L725.057 340.626L837.089 279.282L832.286 270.51ZM726.895 333.59C726.709 333.291 726.215 331.986 726.215 328.752H716.215C716.215 332.43 716.682 336.117 718.415 338.89L726.895 333.59ZM726.215 328.752C726.215 325.505 726.647 321.309 727.578 316.095L717.733 314.337C716.744 319.875 716.215 324.703 716.215 328.752H726.215ZM725.139 319.555L814.707 268.291L809.74 259.612L720.172 310.877L725.139 319.555ZM817.223 263.952V262.8H807.223V263.952H817.223ZM814.697 258.454L725.129 207.478L720.182 216.17L809.75 267.146L814.697 258.454ZM727.399 210.243C726.903 208.756 726.503 205.706 726.503 200.592H716.503C716.503 205.846 716.871 210.284 717.912 213.405L727.399 210.243ZM726.503 200.592C726.503 197.989 726.598 196.081 726.755 194.786C726.834 194.136 726.915 193.752 726.967 193.566C727.045 193.288 726.991 193.672 726.56 194.211L718.751 187.965C717.936 188.984 717.546 190.124 717.335 190.878C717.099 191.724 716.941 192.648 716.828 193.582C716.601 195.455 716.503 197.819 716.503 200.592H726.503ZM720.247 195.47L836.023 259.118L840.84 250.354L725.064 186.706L720.247 195.47Z" fill="#C2C2C2"/>
</svg>
