<svg width="2873" height="365" viewBox="0 0 2873 365" fill="none" xmlns="http://www.w3.org/2000/svg">
<g filter="url(#filter0_d)">
<path d="M238 66V204.462L148 246" stroke="black" stroke-width="50"/>
</g>
<g filter="url(#filter1_d)">
<path d="M308 250V100L398 145" stroke="black" stroke-width="50"/>
<path d="M428 250V100L338 145" stroke="black" stroke-width="50"/>
</g>
<g filter="url(#filter2_d)">
<path d="M93.095 144.664C93.095 155.224 91.367 163.288 87.911 168.856C84.647 174.232 79.175 177.976 71.495 180.088C79.175 182.2 84.647 186.04 87.911 191.608C91.367 196.984 93.095 204.952 93.095 215.512V252.376C93.095 259.096 94.823 264.184 98.279 267.64C101.735 271.288 106.919 273.112 113.831 273.112H117.863V314.872H99.143C79.175 314.872 64.007 309.976 53.639 300.184C43.463 290.584 38.375 276.76 38.375 258.712V214.072C38.375 209.656 37.223 206.392 34.919 204.28C32.807 202.168 29.831 201.112 25.991 201.112H16.199V159.064H25.991C29.831 159.064 32.807 158.008 34.919 155.896C37.223 153.784 38.375 150.52 38.375 146.104V101.464C38.375 83.416 43.463 69.592 53.639 59.992C64.007 50.2 79.175 45.304 99.143 45.304H117.863V87.064H113.831C106.919 87.064 101.735 88.888 98.279 92.536C94.823 95.992 93.095 101.08 93.095 107.8V144.664Z" fill="black"/>
</g>
<g filter="url(#filter3_d)">
<path d="M2852.5 179.064V221.112H2842.99C2839.15 221.112 2836.08 222.168 2833.78 224.28C2831.66 226.392 2830.61 229.656 2830.61 234.072V278.712C2830.61 296.76 2825.42 310.584 2815.06 320.184C2804.88 329.976 2789.81 334.872 2769.84 334.872H2750.83V293.112H2755.15C2762.06 293.112 2767.25 291.288 2770.7 287.64C2774.16 284.184 2775.89 279.096 2775.89 272.376V235.512C2775.89 224.952 2777.52 216.984 2780.78 211.608C2784.24 206.04 2789.81 202.2 2797.49 200.088C2789.81 197.976 2784.24 194.232 2780.78 188.856C2777.52 183.288 2775.89 175.224 2775.89 164.664V127.8C2775.89 121.08 2774.16 115.992 2770.7 112.536C2767.25 108.888 2762.06 107.064 2755.15 107.064H2750.83V65.304H2769.84C2789.81 65.304 2804.88 70.2 2815.06 79.992C2825.42 89.592 2830.61 103.416 2830.61 121.464V166.104C2830.61 170.52 2831.66 173.784 2833.78 175.896C2836.08 178.008 2839.15 179.064 2842.99 179.064H2852.5Z" fill="black"/>
</g>
<g filter="url(#filter4_d)">
<path d="M510.827 152.112C501.611 152.112 493.835 149.04 487.499 142.896C481.163 136.752 477.995 128.976 477.995 119.568C477.995 109.968 481.067 102.192 487.211 96.24C493.547 90.288 501.419 87.312 510.827 87.312C520.427 87.312 528.299 90.288 534.443 96.24C540.587 102.192 543.659 109.968 543.659 119.568C543.659 128.976 540.491 136.752 534.155 142.896C528.011 149.04 520.235 152.112 510.827 152.112ZM510.827 248.592C501.611 248.592 493.835 245.52 487.499 239.376C481.163 233.232 477.995 225.456 477.995 216.048C477.995 206.448 481.067 198.672 487.211 192.72C493.547 186.768 501.419 183.792 510.827 183.792C520.427 183.792 528.299 186.768 534.443 192.72C540.587 198.672 543.659 206.448 543.659 216.048C543.659 225.456 540.491 233.232 534.155 239.376C528.011 245.52 520.235 248.592 510.827 248.592Z" fill="black"/>
</g>
<g filter="url(#filter5_d)">
<path d="M785.5 217.672C785.5 224.984 784.234 231.781 781.703 238.062C779.172 244.344 775.609 249.781 771.016 254.375C766.516 258.969 761.125 262.578 754.844 265.203C748.562 267.734 741.719 269 734.312 269H600.297V232.438H734.312C738.812 232.438 742.328 231.172 744.859 228.641C747.391 226.016 748.656 222.359 748.656 217.672V67.3438H785.5V217.672ZM1024.98 250.578C1024.98 253.203 1024.52 255.641 1023.58 257.891C1022.64 260.141 1021.33 262.109 1019.64 263.797C1017.95 265.391 1015.98 266.656 1013.73 267.594C1011.48 268.531 1009.09 269 1006.56 269H924.156C916.375 269 908.5 268.156 900.531 266.469C892.562 264.781 884.828 262.203 877.328 258.734C869.922 255.172 862.938 250.672 856.375 245.234C849.812 239.797 844.047 233.375 839.078 225.969C834.203 218.469 830.359 209.938 827.547 200.375C824.734 190.719 823.328 179.984 823.328 168.172V67.3438H859.891V168.172C859.891 178.484 861.297 187.203 864.109 194.328C867.016 201.453 870.672 207.406 875.078 212.188C879.484 216.969 884.312 220.719 889.562 223.438C894.812 226.156 899.781 228.172 904.469 229.484C909.25 230.797 913.422 231.641 916.984 232.016C920.641 232.297 923.031 232.438 924.156 232.438H988.422V67.3438H1024.98V250.578ZM1265.45 269H1228.89V219.5H1100.36V269H1063.8V168.172C1063.8 153.453 1066.33 139.906 1071.39 127.531C1076.45 115.156 1083.48 104.516 1092.48 95.6094C1101.48 86.7031 1112.12 79.7656 1124.41 74.7969C1136.69 69.8281 1150.09 67.3438 1164.62 67.3438H1247.03C1249.56 67.3438 1251.95 67.8125 1254.2 68.75C1256.45 69.6875 1258.42 71 1260.11 72.6875C1261.8 74.375 1263.11 76.3438 1264.05 78.5938C1264.98 80.8438 1265.45 83.2344 1265.45 85.7656V269ZM1100.36 182.938H1228.89V103.906H1164.62C1163.5 103.906 1161.11 104.094 1157.45 104.469C1153.89 104.75 1149.72 105.547 1144.94 106.859C1140.25 108.172 1135.28 110.188 1130.03 112.906C1124.78 115.625 1119.95 119.375 1115.55 124.156C1111.14 128.938 1107.48 134.938 1104.58 142.156C1101.77 149.281 1100.36 157.953 1100.36 168.172V182.938ZM1509.58 253.391C1509.58 256.016 1509.06 258.453 1508.03 260.703C1507.09 262.953 1505.78 264.922 1504.09 266.609C1502.5 268.203 1500.58 269.469 1498.33 270.406C1496.08 271.344 1493.69 271.812 1491.16 271.812C1488.91 271.812 1486.61 271.391 1484.27 270.547C1482.02 269.703 1480 268.344 1478.22 266.469L1344.62 126.969V269H1308.06V82.9531C1308.06 79.2031 1309.09 75.8281 1311.16 72.8281C1313.31 69.7344 1316.03 67.4375 1319.31 65.9375C1322.78 64.5312 1326.34 64.2031 1330 64.9531C1333.66 65.6094 1336.8 67.2969 1339.42 70.0156L1473.02 209.375V67.3438H1509.58V253.391ZM1880.55 269H1843.7V148.906L1778.88 262.953C1777.28 265.859 1775.03 268.062 1772.12 269.562C1769.31 271.062 1766.27 271.812 1762.98 271.812C1759.8 271.812 1756.8 271.062 1753.98 269.562C1751.27 268.062 1749.11 265.859 1747.52 262.953L1682.41 148.906V269H1645.84V82.9531C1645.84 78.7344 1647.06 74.9844 1649.5 71.7031C1652.03 68.4219 1655.31 66.2188 1659.34 65.0938C1661.31 64.625 1663.28 64.4844 1665.25 64.6719C1667.22 64.7656 1669.09 65.1875 1670.88 65.9375C1672.75 66.5938 1674.44 67.5781 1675.94 68.8906C1677.44 70.1094 1678.7 71.6094 1679.73 73.3906L1762.98 218.094L1846.23 73.3906C1848.39 69.8281 1851.34 67.2969 1855.09 65.7969C1858.94 64.2969 1862.92 64.0625 1867.05 65.0938C1870.98 66.2188 1874.22 68.4219 1876.75 71.7031C1879.28 74.9844 1880.55 78.7344 1880.55 82.9531V269ZM2121.02 269H2084.45V219.5H1955.92V269H1919.36V168.172C1919.36 153.453 1921.89 139.906 1926.95 127.531C1932.02 115.156 1939.05 104.516 1948.05 95.6094C1957.05 86.7031 1967.69 79.7656 1979.97 74.7969C1992.25 69.8281 2005.66 67.3438 2020.19 67.3438H2102.59C2105.12 67.3438 2107.52 67.8125 2109.77 68.75C2112.02 69.6875 2113.98 71 2115.67 72.6875C2117.36 74.375 2118.67 76.3438 2119.61 78.5938C2120.55 80.8438 2121.02 83.2344 2121.02 85.7656V269ZM1955.92 182.938H2084.45V103.906H2020.19C2019.06 103.906 2016.67 104.094 2013.02 104.469C2009.45 104.75 2005.28 105.547 2000.5 106.859C1995.81 108.172 1990.84 110.188 1985.59 112.906C1980.34 115.625 1975.52 119.375 1971.11 124.156C1966.7 128.938 1963.05 134.938 1960.14 142.156C1957.33 149.281 1955.92 157.953 1955.92 168.172V182.938ZM2365.14 135.125C2365.14 143.469 2364.11 150.922 2362.05 157.484C2359.98 164.047 2357.17 169.859 2353.61 174.922C2350.14 179.891 2346.11 184.156 2341.52 187.719C2336.92 191.281 2332.09 194.234 2327.03 196.578C2322.06 198.828 2317 200.469 2311.84 201.5C2306.78 202.531 2302 203.047 2297.5 203.047L2373.86 269H2317.33L2241.11 203.047H2214.81V166.484H2297.5C2302.09 166.109 2306.27 165.172 2310.02 163.672C2313.86 162.078 2317.14 159.969 2319.86 157.344C2322.67 154.719 2324.83 151.578 2326.33 147.922C2327.83 144.172 2328.58 139.906 2328.58 135.125V112.062C2328.58 110 2328.3 108.453 2327.73 107.422C2327.27 106.297 2326.61 105.5 2325.77 105.031C2325.02 104.469 2324.17 104.141 2323.23 104.047C2322.39 103.953 2321.59 103.906 2320.84 103.906H2200.19V269H2163.62V85.7656C2163.62 83.2344 2164.09 80.8438 2165.03 78.5938C2165.97 76.3438 2167.23 74.375 2168.83 72.6875C2170.52 71 2172.48 69.6875 2174.73 68.75C2176.98 67.8125 2179.42 67.3438 2182.05 67.3438H2320.84C2329 67.3438 2335.89 68.8438 2341.52 71.8438C2347.14 74.75 2351.69 78.4531 2355.16 82.9531C2358.72 87.3594 2361.25 92.1406 2362.75 97.2969C2364.34 102.453 2365.14 107.281 2365.14 111.781V135.125ZM2438.69 269H2402.12V67.3438H2438.69V269ZM2682.95 253.391C2682.95 256.016 2682.44 258.453 2681.41 260.703C2680.47 262.953 2679.16 264.922 2677.47 266.609C2675.88 268.203 2673.95 269.469 2671.7 270.406C2669.45 271.344 2667.06 271.812 2664.53 271.812C2662.28 271.812 2659.98 271.391 2657.64 270.547C2655.39 269.703 2653.38 268.344 2651.59 266.469L2518 126.969V269H2481.44V82.9531C2481.44 79.2031 2482.47 75.8281 2484.53 72.8281C2486.69 69.7344 2489.41 67.4375 2492.69 65.9375C2496.16 64.5312 2499.72 64.2031 2503.38 64.9531C2507.03 65.6094 2510.17 67.2969 2512.8 70.0156L2646.39 209.375V67.3438H2682.95V253.391Z" fill="black"/>
<path d="M771.016 254.375L768.187 251.547L768.173 251.561L768.158 251.576L771.016 254.375ZM754.844 265.203L756.339 268.913L756.363 268.904L756.386 268.894L754.844 265.203ZM600.297 269H596.297V273H600.297V269ZM600.297 232.438V228.438H596.297V232.438H600.297ZM744.859 228.641L747.688 231.469L747.714 231.443L747.739 231.417L744.859 228.641ZM748.656 67.3438V63.3438H744.656V67.3438H748.656ZM785.5 67.3438H789.5V63.3438H785.5V67.3438ZM781.5 217.672C781.5 224.513 780.318 230.798 777.993 236.567L785.413 239.558C788.151 232.764 789.5 225.456 789.5 217.672H781.5ZM777.993 236.567C775.654 242.371 772.384 247.35 768.187 251.547L773.844 257.203C778.835 252.213 782.689 246.316 785.413 239.558L777.993 236.567ZM768.158 251.576C764.054 255.765 759.118 259.081 753.301 261.512L756.386 268.894C763.132 266.075 768.977 262.172 773.873 257.174L768.158 251.576ZM753.349 261.493C747.585 263.816 741.255 265 734.312 265V273C742.183 273 749.54 271.653 756.339 268.913L753.349 261.493ZM734.312 265H600.297V273H734.312V265ZM604.297 269V232.438H596.297V269H604.297ZM600.297 236.438H734.312V228.438H600.297V236.438ZM734.312 236.438C739.586 236.438 744.225 234.932 747.688 231.469L742.031 225.812C740.431 227.412 738.039 228.438 734.312 228.438V236.438ZM747.739 231.417C751.177 227.851 752.656 223.087 752.656 217.672H744.656C744.656 221.631 743.604 224.18 741.98 225.864L747.739 231.417ZM752.656 217.672V67.3438H744.656V217.672H752.656ZM748.656 71.3438H785.5V63.3438H748.656V71.3438ZM781.5 67.3438V217.672H789.5V67.3438H781.5ZM1019.64 263.797L1022.39 266.705L1022.43 266.666L1022.47 266.625L1019.64 263.797ZM877.328 258.734L875.594 262.339L875.622 262.352L875.649 262.365L877.328 258.734ZM839.078 225.969L835.724 228.149L835.74 228.173L835.756 228.197L839.078 225.969ZM827.547 200.375L823.706 201.494L823.709 201.504L827.547 200.375ZM823.328 67.3438V63.3438H819.328V67.3438H823.328ZM859.891 67.3438H863.891V63.3438H859.891V67.3438ZM864.109 194.328L860.389 195.797L860.397 195.818L860.406 195.839L864.109 194.328ZM904.469 229.484L903.39 233.336L903.4 233.339L903.41 233.342L904.469 229.484ZM916.984 232.016L916.566 235.994L916.622 236L916.678 236.004L916.984 232.016ZM988.422 232.438V236.438H992.422V232.438H988.422ZM988.422 67.3438V63.3438H984.422V67.3438H988.422ZM1024.98 67.3438H1028.98V63.3438H1024.98V67.3438ZM1020.98 250.578C1020.98 252.716 1020.6 254.626 1019.89 256.352L1027.27 259.429C1028.43 256.655 1028.98 253.69 1028.98 250.578H1020.98ZM1019.89 256.352C1019.14 258.13 1018.12 259.658 1016.81 260.968L1022.47 266.625C1024.53 264.56 1026.14 262.151 1027.27 259.429L1019.89 256.352ZM1016.89 260.889C1015.58 262.134 1014.02 263.141 1012.2 263.901L1015.27 271.286C1017.95 270.172 1020.33 268.647 1022.39 266.705L1016.89 260.889ZM1012.2 263.901C1010.45 264.628 1008.59 265 1006.56 265V273C1009.6 273 1012.52 272.434 1015.27 271.286L1012.2 263.901ZM1006.56 265H924.156V273H1006.56V265ZM924.156 265C916.666 265 909.069 264.188 901.36 262.556L899.703 270.382C907.931 272.124 916.084 273 924.156 273V265ZM901.36 262.556C893.689 260.931 886.239 258.449 879.007 255.104L875.649 262.365C883.417 265.958 891.436 268.631 899.703 270.382L901.36 262.556ZM879.062 255.13C871.959 251.713 865.248 247.392 858.927 242.154L853.823 248.314C860.627 253.952 867.884 258.63 875.594 262.339L879.062 255.13ZM858.927 242.154C852.674 236.973 847.164 230.842 842.4 223.74L835.756 228.197C840.929 235.908 846.951 242.62 853.823 248.314L858.927 242.154ZM842.432 223.789C837.791 216.649 834.1 208.479 831.384 199.246L823.709 201.504C826.619 211.396 830.615 220.289 835.724 228.149L842.432 223.789ZM831.387 199.256C828.697 190.02 827.328 179.67 827.328 168.172H819.328C819.328 180.299 820.772 191.417 823.706 201.494L831.387 199.256ZM827.328 168.172V67.3438H819.328V168.172H827.328ZM823.328 71.3438H859.891V63.3438H823.328V71.3438ZM855.891 67.3438V168.172H863.891V67.3438H855.891ZM855.891 168.172C855.891 178.824 857.34 188.073 860.389 195.797L867.83 192.859C865.254 186.333 863.891 178.145 863.891 168.172H855.891ZM860.406 195.839C863.46 203.327 867.353 209.708 872.137 214.898L878.02 209.477C873.99 205.105 870.571 199.579 867.813 192.817L860.406 195.839ZM872.137 214.898C876.827 219.988 882.02 224.036 887.723 226.989L891.402 219.886C886.605 217.401 882.142 213.95 878.02 209.477L872.137 214.898ZM887.723 226.989C893.166 229.808 898.391 231.936 903.39 233.336L905.547 225.633C901.172 224.407 896.459 222.504 891.402 219.886L887.723 226.989ZM903.41 233.342C908.327 234.692 912.722 235.589 916.566 235.994L917.403 228.038C914.121 227.692 910.173 226.902 905.528 225.627L903.41 233.342ZM916.678 236.004C920.299 236.282 922.849 236.438 924.156 236.438V228.438C923.214 228.438 920.982 228.311 917.291 228.027L916.678 236.004ZM924.156 236.438H988.422V228.438H924.156V236.438ZM992.422 232.438V67.3438H984.422V232.438H992.422ZM988.422 71.3438H1024.98V63.3438H988.422V71.3438ZM1020.98 67.3438V250.578H1028.98V67.3438H1020.98ZM1265.45 269V273H1269.45V269H1265.45ZM1228.89 269H1224.89V273H1228.89V269ZM1228.89 219.5H1232.89V215.5H1228.89V219.5ZM1100.36 219.5V215.5H1096.36V219.5H1100.36ZM1100.36 269V273H1104.36V269H1100.36ZM1063.8 269H1059.8V273H1063.8V269ZM1100.36 182.938H1096.36V186.938H1100.36V182.938ZM1228.89 182.938V186.938H1232.89V182.938H1228.89ZM1228.89 103.906H1232.89V99.9062H1228.89V103.906ZM1157.45 104.469L1157.77 108.456L1157.81 108.453L1157.86 108.448L1157.45 104.469ZM1144.94 106.859L1143.88 103.002L1143.87 103.005L1143.86 103.008L1144.94 106.859ZM1104.58 142.156L1100.87 140.662L1100.86 140.675L1100.86 140.688L1104.58 142.156ZM1265.45 265H1228.89V273H1265.45V265ZM1232.89 269V219.5H1224.89V269H1232.89ZM1228.89 215.5H1100.36V223.5H1228.89V215.5ZM1096.36 219.5V269H1104.36V219.5H1096.36ZM1100.36 265H1063.8V273H1100.36V265ZM1067.8 269V168.172H1059.8V269H1067.8ZM1067.8 168.172C1067.8 153.92 1070.25 140.894 1075.09 129.046L1067.69 126.017C1062.41 138.919 1059.8 152.986 1059.8 168.172H1067.8ZM1075.09 129.046C1079.96 117.141 1086.7 106.959 1095.3 98.4526L1089.67 92.7662C1080.27 102.072 1072.94 113.172 1067.69 126.017L1075.09 129.046ZM1095.3 98.4526C1103.9 89.9358 1114.09 83.2845 1125.91 78.5049L1122.91 71.0889C1110.16 76.2468 1099.06 83.4704 1089.67 92.7662L1095.3 98.4526ZM1125.91 78.5049C1137.67 73.7469 1150.56 71.3438 1164.62 71.3438V63.3438C1149.63 63.3438 1135.71 65.9094 1122.91 71.0889L1125.91 78.5049ZM1164.62 71.3438H1247.03V63.3438H1164.62V71.3438ZM1247.03 71.3438C1249.06 71.3438 1250.92 71.7157 1252.66 72.4423L1255.74 65.0577C1252.99 63.9093 1250.07 63.3438 1247.03 63.3438V71.3438ZM1252.66 72.4423C1254.44 73.1833 1255.97 74.2059 1257.28 75.5159L1262.94 69.8591C1260.87 67.7941 1258.46 66.1917 1255.74 65.0577L1252.66 72.4423ZM1257.28 75.5159C1258.59 76.826 1259.61 78.3539 1260.35 80.1322L1267.74 77.0553C1266.61 74.3336 1265 71.924 1262.94 69.8591L1257.28 75.5159ZM1260.35 80.1322C1261.08 81.876 1261.45 83.7418 1261.45 85.7656H1269.45C1269.45 82.727 1268.89 79.8115 1267.74 77.0553L1260.35 80.1322ZM1261.45 85.7656V269H1269.45V85.7656H1261.45ZM1100.36 186.938H1228.89V178.938H1100.36V186.938ZM1232.89 182.938V103.906H1224.89V182.938H1232.89ZM1228.89 99.9062H1164.62V107.906H1228.89V99.9062ZM1164.62 99.9062C1163.26 99.9062 1160.65 100.119 1157.05 100.49L1157.86 108.448C1161.56 108.068 1163.74 107.906 1164.62 107.906V99.9062ZM1157.14 100.481C1153.25 100.788 1148.82 101.646 1143.88 103.002L1146 110.717C1150.62 109.447 1154.53 108.712 1157.77 108.456L1157.14 100.481ZM1143.86 103.008C1138.86 104.407 1133.63 106.536 1128.19 109.354L1131.87 116.458C1136.93 113.839 1141.64 111.936 1146.02 110.711L1143.86 103.008ZM1128.19 109.354C1122.49 112.307 1117.3 116.356 1112.61 121.446L1118.49 126.867C1122.61 122.394 1127.07 118.943 1131.87 116.458L1128.19 109.354ZM1112.61 121.446C1107.81 126.645 1103.92 133.081 1100.87 140.662L1108.29 143.65C1111.05 136.794 1114.47 131.23 1118.49 126.867L1112.61 121.446ZM1100.86 140.688C1097.81 148.408 1096.36 157.609 1096.36 168.172H1104.36C1104.36 158.298 1105.72 150.155 1108.3 143.625L1100.86 140.688ZM1096.36 168.172V182.938H1104.36V168.172H1096.36ZM1508.03 260.703L1504.39 259.037L1504.37 259.1L1504.34 259.165L1508.03 260.703ZM1484.27 270.547L1482.86 274.292L1482.89 274.301L1482.91 274.31L1484.27 270.547ZM1478.22 266.469L1481.12 263.714L1481.11 263.708L1481.11 263.702L1478.22 266.469ZM1344.62 126.969L1347.51 124.202L1340.62 117.009V126.969H1344.62ZM1344.62 269V273H1348.62V269H1344.62ZM1308.06 269H1304.06V273H1308.06V269ZM1311.16 72.8281L1307.87 70.541L1307.87 70.5515L1307.86 70.562L1311.16 72.8281ZM1319.31 65.9375L1317.81 62.2305L1317.73 62.2633L1317.65 62.2996L1319.31 65.9375ZM1330 64.9531L1329.2 68.8715L1329.24 68.8815L1329.29 68.8902L1330 64.9531ZM1339.42 70.0156L1342.31 67.2476L1342.3 67.2424L1342.3 67.2372L1339.42 70.0156ZM1473.02 209.375L1470.13 212.143L1477.02 219.328V209.375H1473.02ZM1473.02 67.3438V63.3438H1469.02V67.3438H1473.02ZM1509.58 67.3438H1513.58V63.3438H1509.58V67.3438ZM1505.58 253.391C1505.58 255.476 1505.17 257.341 1504.39 259.037L1511.67 262.37C1512.95 259.565 1513.58 256.555 1513.58 253.391H1505.58ZM1504.34 259.165C1503.6 260.943 1502.58 262.471 1501.27 263.781L1506.92 269.438C1508.99 267.373 1510.59 264.963 1511.72 262.242L1504.34 259.165ZM1501.27 263.781C1500.07 264.976 1498.6 265.961 1496.79 266.714L1499.87 274.099C1502.56 272.977 1504.93 271.43 1506.92 269.438L1501.27 263.781ZM1496.79 266.714C1495.05 267.441 1493.18 267.812 1491.16 267.812V275.812C1494.19 275.812 1497.11 275.247 1499.87 274.099L1496.79 266.714ZM1491.16 267.812C1489.41 267.812 1487.58 267.487 1485.62 266.783L1482.91 274.31C1485.64 275.294 1488.4 275.812 1491.16 275.812V267.812ZM1485.67 266.802C1484.03 266.186 1482.52 265.184 1481.12 263.714L1475.32 269.224C1477.48 271.504 1480 273.22 1482.86 274.292L1485.67 266.802ZM1481.11 263.702L1347.51 124.202L1341.74 129.735L1475.33 269.235L1481.11 263.702ZM1340.62 126.969V269H1348.62V126.969H1340.62ZM1344.62 265H1308.06V273H1344.62V265ZM1312.06 269V82.9531H1304.06V269H1312.06ZM1312.06 82.9531C1312.06 79.9864 1312.86 77.4064 1314.45 75.0942L1307.86 70.562C1305.32 74.2498 1304.06 78.4198 1304.06 82.9531H1312.06ZM1314.44 75.1153C1316.2 72.5807 1318.37 70.7643 1320.98 69.5754L1317.65 62.2996C1313.69 64.1107 1310.42 66.888 1307.87 70.541L1314.44 75.1153ZM1320.82 69.6445C1323.56 68.5337 1326.32 68.2806 1329.2 68.8715L1330.8 61.0347C1326.37 60.1257 1322.01 60.5288 1317.81 62.2305L1320.82 69.6445ZM1329.29 68.8902C1332.11 69.3952 1334.49 70.6688 1336.54 72.794L1342.3 67.2372C1339.1 63.925 1335.21 61.8235 1330.71 61.016L1329.29 68.8902ZM1336.53 72.7837L1470.13 212.143L1475.9 206.607L1342.31 67.2476L1336.53 72.7837ZM1477.02 209.375V67.3438H1469.02V209.375H1477.02ZM1473.02 71.3438H1509.58V63.3438H1473.02V71.3438ZM1505.58 67.3438V253.391H1513.58V67.3438H1505.58ZM1880.55 269V273H1884.55V269H1880.55ZM1843.7 269H1839.7V273H1843.7V269ZM1843.7 148.906H1847.7V133.775L1840.23 146.93L1843.7 148.906ZM1778.88 262.953L1775.4 260.976L1775.38 261.003L1775.37 261.03L1778.88 262.953ZM1772.12 269.562L1770.29 266.008L1770.27 266.02L1770.24 266.033L1772.12 269.562ZM1753.98 269.562L1752.05 273.065L1752.08 273.079L1752.1 273.092L1753.98 269.562ZM1747.52 262.953L1751.02 261.03L1751.01 261L1750.99 260.97L1747.52 262.953ZM1682.41 148.906L1685.88 146.923L1678.41 133.832V148.906H1682.41ZM1682.41 269V273H1686.41V269H1682.41ZM1645.84 269H1641.84V273H1645.84V269ZM1649.5 71.7031L1646.33 69.2599L1646.31 69.2887L1646.29 69.3178L1649.5 71.7031ZM1659.34 65.0938L1658.42 61.2025L1658.34 61.2203L1658.27 61.241L1659.34 65.0938ZM1665.25 64.6719L1664.87 68.6539L1664.97 68.6628L1665.06 68.6673L1665.25 64.6719ZM1670.88 65.9375L1669.32 69.624L1669.44 69.6721L1669.55 69.7129L1670.88 65.9375ZM1675.94 68.8906L1673.3 71.9009L1673.36 71.949L1673.42 71.9951L1675.94 68.8906ZM1679.73 73.3906L1683.2 71.3959L1683.2 71.3865L1679.73 73.3906ZM1762.98 218.094L1759.52 220.088L1762.98 226.115L1766.45 220.088L1762.98 218.094ZM1846.23 73.3906L1842.81 71.3194L1842.79 71.3574L1842.77 71.3959L1846.23 73.3906ZM1855.09 65.7969L1853.64 62.0706L1853.62 62.0767L1853.61 62.083L1855.09 65.7969ZM1867.05 65.0938L1868.15 61.2477L1868.08 61.2293L1868.02 61.2132L1867.05 65.0938ZM1880.55 265H1843.7V273H1880.55V265ZM1847.7 269V148.906H1839.7V269H1847.7ZM1840.23 146.93L1775.4 260.976L1782.35 264.93L1847.18 150.883L1840.23 146.93ZM1775.37 261.03C1774.15 263.248 1772.48 264.878 1770.29 266.008L1773.96 273.117C1777.58 271.247 1780.41 268.471 1782.38 264.876L1775.37 261.03ZM1770.24 266.033C1768.03 267.215 1765.63 267.812 1762.98 267.812V275.812C1766.9 275.812 1770.6 274.91 1774.01 273.092L1770.24 266.033ZM1762.98 267.812C1760.45 267.812 1758.1 267.224 1755.87 266.033L1752.1 273.092C1755.49 274.901 1759.14 275.812 1762.98 275.812V267.812ZM1755.92 266.06C1753.91 264.952 1752.28 263.318 1751.02 261.03L1744.01 264.876C1745.94 268.401 1748.62 271.173 1752.05 273.065L1755.92 266.06ZM1750.99 260.97L1685.88 146.923L1678.93 150.889L1744.04 264.936L1750.99 260.97ZM1678.41 148.906V269H1686.41V148.906H1678.41ZM1682.41 265H1645.84V273H1682.41V265ZM1649.84 269V82.9531H1641.84V269H1649.84ZM1649.84 82.9531C1649.84 79.564 1650.8 76.6566 1652.71 74.0884L1646.29 69.3178C1643.32 73.3122 1641.84 77.9048 1641.84 82.9531H1649.84ZM1652.67 74.1463C1654.67 71.5556 1657.21 69.8421 1660.42 68.9465L1658.27 61.241C1653.42 62.5954 1649.4 65.2882 1646.33 69.2599L1652.67 74.1463ZM1660.27 68.985C1661.82 68.6156 1663.35 68.509 1664.87 68.6539L1665.63 60.6899C1663.21 60.4598 1660.8 60.6344 1658.42 61.2025L1660.27 68.985ZM1665.06 68.6673C1666.57 68.7392 1667.98 69.0597 1669.32 69.624L1672.43 62.251C1670.2 61.3153 1667.87 60.792 1665.44 60.6764L1665.06 68.6673ZM1669.55 69.7129C1670.94 70.1998 1672.19 70.9238 1673.3 71.9009L1678.57 65.8803C1676.69 64.2324 1674.56 62.9877 1672.2 62.1621L1669.55 69.7129ZM1673.42 71.9951C1674.51 72.8877 1675.47 74.0068 1676.27 75.3948L1683.2 71.3865C1681.94 69.212 1680.36 67.331 1678.46 65.7862L1673.42 71.9951ZM1676.27 75.3853L1759.52 220.088L1766.45 216.099L1683.2 71.3959L1676.27 75.3853ZM1766.45 220.088L1849.7 75.3853L1842.77 71.3959L1759.52 216.099L1766.45 220.088ZM1849.66 75.4618C1851.38 72.6179 1853.66 70.6775 1856.58 69.5108L1853.61 62.083C1849.02 63.9163 1845.4 67.0384 1842.81 71.3194L1849.66 75.4618ZM1856.55 69.5232C1859.59 68.3343 1862.73 68.1377 1866.08 68.9743L1868.02 61.2132C1863.11 59.9873 1858.28 60.2594 1853.64 62.0706L1856.55 69.5232ZM1865.95 68.9398C1869.05 69.8271 1871.57 71.5329 1873.58 74.1463L1879.92 69.2599C1876.87 65.3109 1872.92 62.6104 1868.15 61.2477L1865.95 68.9398ZM1873.58 74.1463C1875.56 76.7141 1876.55 79.6012 1876.55 82.9531H1884.55C1884.55 77.8675 1883 73.2547 1879.92 69.2599L1873.58 74.1463ZM1876.55 82.9531V269H1884.55V82.9531H1876.55ZM2121.02 269V273H2125.02V269H2121.02ZM2084.45 269H2080.45V273H2084.45V269ZM2084.45 219.5H2088.45V215.5H2084.45V219.5ZM1955.92 219.5V215.5H1951.92V219.5H1955.92ZM1955.92 269V273H1959.92V269H1955.92ZM1919.36 269H1915.36V273H1919.36V269ZM1955.92 182.938H1951.92V186.938H1955.92V182.938ZM2084.45 182.938V186.938H2088.45V182.938H2084.45ZM2084.45 103.906H2088.45V99.9062H2084.45V103.906ZM2013.02 104.469L2013.33 108.456L2013.38 108.453L2013.42 108.448L2013.02 104.469ZM2000.5 106.859L1999.44 103.002L1999.43 103.005L1999.42 103.008L2000.5 106.859ZM1960.14 142.156L1956.43 140.662L1956.42 140.675L1956.42 140.688L1960.14 142.156ZM2121.02 265H2084.45V273H2121.02V265ZM2088.45 269V219.5H2080.45V269H2088.45ZM2084.45 215.5H1955.92V223.5H2084.45V215.5ZM1951.92 219.5V269H1959.92V219.5H1951.92ZM1955.92 265H1919.36V273H1955.92V265ZM1923.36 269V168.172H1915.36V269H1923.36ZM1923.36 168.172C1923.36 153.92 1925.81 140.894 1930.66 129.046L1923.25 126.017C1917.97 138.919 1915.36 152.986 1915.36 168.172H1923.36ZM1930.66 129.046C1935.53 117.141 1942.26 106.959 1950.86 98.4526L1945.23 92.7662C1935.83 102.072 1928.51 113.172 1923.25 126.017L1930.66 129.046ZM1950.86 98.4526C1959.47 89.9358 1969.66 83.2845 1981.47 78.5049L1978.47 71.0889C1965.72 76.2468 1954.63 83.4704 1945.23 92.7662L1950.86 98.4526ZM1981.47 78.5049C1993.23 73.7469 2006.12 71.3438 2020.19 71.3438V63.3438C2005.19 63.3438 1991.27 65.9094 1978.47 71.0889L1981.47 78.5049ZM2020.19 71.3438H2102.59V63.3438H2020.19V71.3438ZM2102.59 71.3438C2104.62 71.3438 2106.48 71.7157 2108.23 72.4423L2111.3 65.0577C2108.55 63.9093 2105.63 63.3438 2102.59 63.3438V71.3438ZM2108.23 72.4423C2110.01 73.1833 2111.53 74.2059 2112.84 75.5159L2118.5 69.8591C2116.44 67.7941 2114.03 66.1917 2111.3 65.0577L2108.23 72.4423ZM2112.84 75.5159C2114.15 76.826 2115.18 78.3539 2115.92 80.1322L2123.3 77.0553C2122.17 74.3336 2120.57 71.924 2118.5 69.8591L2112.84 75.5159ZM2115.92 80.1322C2116.64 81.876 2117.02 83.7418 2117.02 85.7656H2125.02C2125.02 82.727 2124.45 79.8115 2123.3 77.0553L2115.92 80.1322ZM2117.02 85.7656V269H2125.02V85.7656H2117.02ZM1955.92 186.938H2084.45V178.938H1955.92V186.938ZM2088.45 182.938V103.906H2080.45V182.938H2088.45ZM2084.45 99.9062H2020.19V107.906H2084.45V99.9062ZM2020.19 99.9062C2018.82 99.9062 2016.22 100.119 2012.61 100.49L2013.42 108.448C2017.13 108.068 2019.31 107.906 2020.19 107.906V99.9062ZM2012.7 100.481C2008.81 100.788 2004.38 101.646 1999.44 103.002L2001.56 110.717C2006.18 109.447 2010.1 108.712 2013.33 108.456L2012.7 100.481ZM1999.42 103.008C1994.42 104.407 1989.2 106.536 1983.75 109.354L1987.43 116.458C1992.49 113.839 1997.2 111.936 2001.58 110.711L1999.42 103.008ZM1983.75 109.354C1978.05 112.307 1972.86 116.356 1968.17 121.446L1974.05 126.867C1978.17 122.394 1982.64 118.943 1987.43 116.458L1983.75 109.354ZM1968.17 121.446C1963.38 126.645 1959.48 133.081 1956.43 140.662L1963.85 143.65C1966.61 136.794 1970.03 131.23 1974.05 126.867L1968.17 121.446ZM1956.42 140.688C1953.37 148.408 1951.92 157.609 1951.92 168.172H1959.92C1959.92 158.298 1961.28 150.155 1963.86 143.625L1956.42 140.688ZM1951.92 168.172V182.938H1959.92V168.172H1951.92ZM2353.61 174.922L2350.34 172.62L2350.33 172.626L2350.33 172.632L2353.61 174.922ZM2327.03 196.578L2328.68 200.222L2328.7 200.215L2328.71 200.208L2327.03 196.578ZM2311.84 201.5L2311.06 197.578L2311.05 197.579L2311.05 197.58L2311.84 201.5ZM2297.5 203.047V199.047H2286.75L2294.89 206.074L2297.5 203.047ZM2373.86 269V273H2384.61L2376.47 265.973L2373.86 269ZM2317.33 269L2314.71 272.025L2315.84 273H2317.33V269ZM2241.11 203.047L2243.73 200.022L2242.6 199.047H2241.11V203.047ZM2214.81 203.047H2210.81V207.047H2214.81V203.047ZM2214.81 166.484V162.484H2210.81V166.484H2214.81ZM2297.5 166.484V170.484H2297.66L2297.83 170.471L2297.5 166.484ZM2310.02 163.672L2311.5 167.386L2311.52 167.376L2311.55 167.367L2310.02 163.672ZM2319.86 157.344L2317.13 154.42L2317.11 154.443L2317.08 154.466L2319.86 157.344ZM2326.33 147.922L2330.03 149.44L2330.04 149.424L2330.04 149.407L2326.33 147.922ZM2327.73 107.422L2324.04 108.96L2324.12 109.154L2324.22 109.337L2327.73 107.422ZM2325.77 105.031L2323.37 108.231L2323.58 108.395L2323.82 108.528L2325.77 105.031ZM2323.23 104.047L2322.79 108.022L2322.81 108.025L2322.84 108.027L2323.23 104.047ZM2200.19 103.906V99.9062H2196.19V103.906H2200.19ZM2200.19 269V273H2204.19V269H2200.19ZM2163.62 269H2159.62V273H2163.62V269ZM2168.83 72.6875L2166 69.8591L2165.96 69.8995L2165.92 69.941L2168.83 72.6875ZM2341.52 71.8438L2339.63 75.3732L2339.66 75.3855L2339.68 75.3975L2341.52 71.8438ZM2355.16 82.9531L2351.99 85.3952L2352.02 85.4319L2352.05 85.468L2355.16 82.9531ZM2362.75 97.2969L2358.91 98.4142L2358.92 98.4462L2358.93 98.4781L2362.75 97.2969ZM2361.14 135.125C2361.14 143.145 2360.15 150.183 2358.23 156.285L2365.86 158.684C2368.07 151.661 2369.14 143.792 2369.14 135.125H2361.14ZM2358.23 156.285C2356.28 162.497 2353.64 167.93 2350.34 172.62L2356.88 177.224C2360.71 171.789 2363.69 165.596 2365.86 158.684L2358.23 156.285ZM2350.33 172.632C2347.08 177.285 2343.33 181.253 2339.06 184.558L2343.97 190.88C2348.89 187.06 2353.2 182.497 2356.89 177.212L2350.33 172.632ZM2339.06 184.558C2334.7 187.943 2330.13 190.736 2325.35 192.948L2328.71 200.208C2334.06 197.732 2339.14 194.619 2343.97 190.88L2339.06 184.558ZM2325.38 192.934C2320.68 195.064 2315.91 196.608 2311.06 197.578L2312.63 205.422C2318.09 204.329 2323.45 202.593 2328.68 200.222L2325.38 192.934ZM2311.05 197.58C2306.21 198.566 2301.7 199.047 2297.5 199.047V207.047C2302.3 207.047 2307.35 206.497 2312.64 205.42L2311.05 197.58ZM2294.89 206.074L2371.24 272.027L2376.47 265.973L2300.11 200.02L2294.89 206.074ZM2373.86 265H2317.33V273H2373.86V265ZM2319.95 265.975L2243.73 200.022L2238.49 206.072L2314.71 272.025L2319.95 265.975ZM2241.11 199.047H2214.81V207.047H2241.11V199.047ZM2218.81 203.047V166.484H2210.81V203.047H2218.81ZM2214.81 170.484H2297.5V162.484H2214.81V170.484ZM2297.83 170.471C2302.76 170.068 2307.33 169.053 2311.5 167.386L2308.53 159.958C2305.2 161.29 2301.43 162.151 2297.17 162.498L2297.83 170.471ZM2311.55 167.367C2315.81 165.601 2319.52 163.228 2322.64 160.221L2317.08 154.466C2314.76 156.709 2311.91 158.556 2308.48 159.977L2311.55 167.367ZM2322.59 160.268C2325.83 157.239 2328.32 153.615 2330.03 149.44L2322.63 146.404C2321.34 149.542 2319.51 152.199 2317.13 154.42L2322.59 160.268ZM2330.04 149.407C2331.76 145.107 2332.58 140.323 2332.58 135.125H2324.58C2324.58 139.489 2323.89 143.237 2322.61 146.436L2330.04 149.407ZM2332.58 135.125V112.062H2324.58V135.125H2332.58ZM2332.58 112.062C2332.58 109.767 2332.29 107.416 2331.25 105.506L2324.22 109.337C2324.31 109.49 2324.58 110.233 2324.58 112.062H2332.58ZM2331.43 105.883C2330.7 104.15 2329.53 102.545 2327.71 101.535L2323.82 108.528C2323.78 108.502 2323.77 108.485 2323.8 108.523C2323.84 108.57 2323.93 108.697 2324.04 108.96L2331.43 105.883ZM2328.17 101.831C2326.83 100.829 2325.29 100.233 2323.63 100.067L2322.84 108.027C2323.05 108.049 2323.2 108.109 2323.37 108.231L2328.17 101.831ZM2323.68 100.071C2322.7 99.9634 2321.76 99.9062 2320.84 99.9062V107.906C2321.43 107.906 2322.08 107.943 2322.79 108.022L2323.68 100.071ZM2320.84 99.9062H2200.19V107.906H2320.84V99.9062ZM2196.19 103.906V269H2204.19V103.906H2196.19ZM2200.19 265H2163.62V273H2200.19V265ZM2167.62 269V85.7656H2159.62V269H2167.62ZM2167.62 85.7656C2167.62 83.7418 2168 81.876 2168.72 80.1322L2161.34 77.0553C2160.19 79.8115 2159.62 82.727 2159.62 85.7656H2167.62ZM2168.72 80.1322C2169.48 78.3064 2170.49 76.7522 2171.74 75.434L2165.92 69.941C2163.98 71.9978 2162.45 74.3811 2161.34 77.0553L2168.72 80.1322ZM2171.66 75.5159C2172.97 74.2059 2174.49 73.1833 2176.27 72.4423L2173.2 65.0577C2170.47 66.1917 2168.06 67.7941 2166 69.8591L2171.66 75.5159ZM2176.27 72.4423C2178 71.7231 2179.91 71.3438 2182.05 71.3438V63.3438C2178.93 63.3438 2175.97 63.9019 2173.2 65.0577L2176.27 72.4423ZM2182.05 71.3438H2320.84V63.3438H2182.05V71.3438ZM2320.84 71.3438C2328.52 71.3438 2334.73 72.7565 2339.63 75.3732L2343.4 68.3143C2337.05 64.931 2329.48 63.3438 2320.84 63.3438V71.3438ZM2339.68 75.3975C2344.84 78.066 2348.92 81.4093 2351.99 85.3952L2358.32 80.5111C2354.46 75.497 2349.44 71.434 2343.35 68.29L2339.68 75.3975ZM2352.05 85.468C2355.29 89.4846 2357.57 93.7955 2358.91 98.4142L2366.59 96.1796C2364.93 90.4858 2362.14 85.2341 2358.27 80.4382L2352.05 85.468ZM2358.93 98.4781C2360.43 103.325 2361.14 107.752 2361.14 111.781H2369.14C2369.14 106.81 2368.26 101.581 2366.57 96.1156L2358.93 98.4781ZM2361.14 111.781V135.125H2369.14V111.781H2361.14ZM2438.69 269V273H2442.69V269H2438.69ZM2402.12 269H2398.12V273H2402.12V269ZM2402.12 67.3438V63.3438H2398.12V67.3438H2402.12ZM2438.69 67.3438H2442.69V63.3438H2438.69V67.3438ZM2438.69 265H2402.12V273H2438.69V265ZM2406.12 269V67.3438H2398.12V269H2406.12ZM2402.12 71.3438H2438.69V63.3438H2402.12V71.3438ZM2434.69 67.3438V269H2442.69V67.3438H2434.69ZM2681.41 260.703L2677.77 259.037L2677.74 259.1L2677.71 259.165L2681.41 260.703ZM2657.64 270.547L2656.24 274.292L2656.26 274.301L2656.29 274.31L2657.64 270.547ZM2651.59 266.469L2654.49 263.714L2654.49 263.708L2654.48 263.702L2651.59 266.469ZM2518 126.969L2520.89 124.202L2514 117.009V126.969H2518ZM2518 269V273H2522V269H2518ZM2481.44 269H2477.44V273H2481.44V269ZM2484.53 72.8281L2481.25 70.541L2481.24 70.5515L2481.24 70.562L2484.53 72.8281ZM2492.69 65.9375L2491.18 62.2305L2491.1 62.2633L2491.02 62.2996L2492.69 65.9375ZM2503.38 64.9531L2502.57 68.8715L2502.62 68.8815L2502.67 68.8902L2503.38 64.9531ZM2512.8 70.0156L2515.68 67.2476L2515.68 67.2424L2515.67 67.2372L2512.8 70.0156ZM2646.39 209.375L2643.5 212.143L2650.39 219.328V209.375H2646.39ZM2646.39 67.3438V63.3438H2642.39V67.3438H2646.39ZM2682.95 67.3438H2686.95V63.3438H2682.95V67.3438ZM2678.95 253.391C2678.95 255.476 2678.55 257.341 2677.77 259.037L2685.04 262.37C2686.33 259.565 2686.95 256.555 2686.95 253.391H2678.95ZM2677.71 259.165C2676.97 260.943 2675.95 262.471 2674.64 263.781L2680.3 269.438C2682.36 267.373 2683.96 264.963 2685.1 262.242L2677.71 259.165ZM2674.64 263.781C2673.45 264.976 2671.97 265.961 2670.16 266.714L2673.24 274.099C2675.93 272.977 2678.3 271.43 2680.3 269.438L2674.64 263.781ZM2670.16 266.714C2668.42 267.441 2666.56 267.812 2664.53 267.812V275.812C2667.57 275.812 2670.49 275.247 2673.24 274.099L2670.16 266.714ZM2664.53 267.812C2662.79 267.812 2660.95 267.487 2659 266.783L2656.29 274.31C2659.02 275.294 2661.77 275.812 2664.53 275.812V267.812ZM2659.05 266.802C2657.4 266.186 2655.89 265.184 2654.49 263.714L2648.69 269.224C2650.86 271.504 2653.38 273.22 2656.24 274.292L2659.05 266.802ZM2654.48 263.702L2520.89 124.202L2515.11 129.735L2648.7 269.235L2654.48 263.702ZM2514 126.969V269H2522V126.969H2514ZM2518 265H2481.44V273H2518V265ZM2485.44 269V82.9531H2477.44V269H2485.44ZM2485.44 82.9531C2485.44 79.9864 2486.24 77.4064 2487.83 75.0942L2481.24 70.562C2478.7 74.2498 2477.44 78.4198 2477.44 82.9531H2485.44ZM2487.81 75.1153C2489.58 72.5807 2491.75 70.7643 2494.35 69.5754L2491.02 62.2996C2487.06 64.1107 2483.8 66.888 2481.25 70.541L2487.81 75.1153ZM2494.19 69.6445C2496.93 68.5337 2499.69 68.2806 2502.57 68.8715L2504.18 61.0347C2499.75 60.1257 2495.38 60.5288 2491.18 62.2305L2494.19 69.6445ZM2502.67 68.8902C2505.48 69.3952 2507.87 70.6688 2509.92 72.794L2515.67 67.2372C2512.48 63.925 2508.58 61.8235 2504.08 61.016L2502.67 68.8902ZM2509.91 72.7837L2643.5 212.143L2649.28 206.607L2515.68 67.2476L2509.91 72.7837ZM2650.39 209.375V67.3438H2642.39V209.375H2650.39ZM2646.39 71.3438H2682.95V63.3438H2646.39V71.3438ZM2678.95 67.3438V253.391H2686.95V67.3438H2678.95Z" fill="black"/>
</g>
<defs>
<filter id="filter0_d" x="137.524" y="66" width="145.476" height="232.699" filterUnits="userSpaceOnUse" color-interpolation-filters="sRGB">
<feFlood flood-opacity="0" result="BackgroundImageFix"/>
<feColorMatrix in="SourceAlpha" type="matrix" values="0 0 0 0 0 0 0 0 0 0 0 0 0 0 0 0 0 0 127 0"/>
<feOffset dx="10" dy="20"/>
<feGaussianBlur stdDeviation="5"/>
<feColorMatrix type="matrix" values="0 0 0 0 0 0 0 0 0 0 0 0 0 0 0 0 0 0 0.5 0"/>
<feBlend mode="normal" in2="BackgroundImageFix" result="effect1_dropShadow"/>
<feBlend mode="normal" in="SourceGraphic" in2="effect1_dropShadow" result="shape"/>
</filter>
<filter id="filter1_d" x="283" y="59.5491" width="190" height="220.451" filterUnits="userSpaceOnUse" color-interpolation-filters="sRGB">
<feFlood flood-opacity="0" result="BackgroundImageFix"/>
<feColorMatrix in="SourceAlpha" type="matrix" values="0 0 0 0 0 0 0 0 0 0 0 0 0 0 0 0 0 0 127 0"/>
<feOffset dx="10" dy="20"/>
<feGaussianBlur stdDeviation="5"/>
<feColorMatrix type="matrix" values="0 0 0 0 0 0 0 0 0 0 0 0 0 0 0 0 0 0 0.5 0"/>
<feBlend mode="normal" in2="BackgroundImageFix" result="effect1_dropShadow"/>
<feBlend mode="normal" in="SourceGraphic" in2="effect1_dropShadow" result="shape"/>
</filter>
<filter id="filter2_d" x="16.199" y="45.304" width="121.664" height="299.568" filterUnits="userSpaceOnUse" color-interpolation-filters="sRGB">
<feFlood flood-opacity="0" result="BackgroundImageFix"/>
<feColorMatrix in="SourceAlpha" type="matrix" values="0 0 0 0 0 0 0 0 0 0 0 0 0 0 0 0 0 0 127 0"/>
<feOffset dx="10" dy="20"/>
<feGaussianBlur stdDeviation="5"/>
<feColorMatrix type="matrix" values="0 0 0 0 0 0 0 0 0 0 0 0 0 0 0 0 0 0 0.5 0"/>
<feBlend mode="normal" in2="BackgroundImageFix" result="effect1_dropShadow"/>
<feBlend mode="normal" in="SourceGraphic" in2="effect1_dropShadow" result="shape"/>
</filter>
<filter id="filter3_d" x="2750.83" y="65.304" width="121.664" height="299.568" filterUnits="userSpaceOnUse" color-interpolation-filters="sRGB">
<feFlood flood-opacity="0" result="BackgroundImageFix"/>
<feColorMatrix in="SourceAlpha" type="matrix" values="0 0 0 0 0 0 0 0 0 0 0 0 0 0 0 0 0 0 127 0"/>
<feOffset dx="10" dy="20"/>
<feGaussianBlur stdDeviation="5"/>
<feColorMatrix type="matrix" values="0 0 0 0 0 0 0 0 0 0 0 0 0 0 0 0 0 0 0.5 0"/>
<feBlend mode="normal" in2="BackgroundImageFix" result="effect1_dropShadow"/>
<feBlend mode="normal" in="SourceGraphic" in2="effect1_dropShadow" result="shape"/>
</filter>
<filter id="filter4_d" x="477.995" y="87.312" width="85.664" height="191.28" filterUnits="userSpaceOnUse" color-interpolation-filters="sRGB">
<feFlood flood-opacity="0" result="BackgroundImageFix"/>
<feColorMatrix in="SourceAlpha" type="matrix" values="0 0 0 0 0 0 0 0 0 0 0 0 0 0 0 0 0 0 127 0"/>
<feOffset dx="10" dy="20"/>
<feGaussianBlur stdDeviation="5"/>
<feColorMatrix type="matrix" values="0 0 0 0 0 0 0 0 0 0 0 0 0 0 0 0 0 0 0.5 0"/>
<feBlend mode="normal" in2="BackgroundImageFix" result="effect1_dropShadow"/>
<feBlend mode="normal" in="SourceGraphic" in2="effect1_dropShadow" result="shape"/>
</filter>
<filter id="filter5_d" x="596.297" y="60.4636" width="2110.66" height="245.349" filterUnits="userSpaceOnUse" color-interpolation-filters="sRGB">
<feFlood flood-opacity="0" result="BackgroundImageFix"/>
<feColorMatrix in="SourceAlpha" type="matrix" values="0 0 0 0 0 0 0 0 0 0 0 0 0 0 0 0 0 0 127 0"/>
<feOffset dx="10" dy="20"/>
<feGaussianBlur stdDeviation="5"/>
<feColorMatrix type="matrix" values="0 0 0 0 0 0 0 0 0 0 0 0 0 0 0 0 0 0 0.5 0"/>
<feBlend mode="normal" in2="BackgroundImageFix" result="effect1_dropShadow"/>
<feBlend mode="normal" in="SourceGraphic" in2="effect1_dropShadow" result="shape"/>
</filter>
</defs>
</svg>
