<svg width="400" height="400" viewBox="0 0 400 400" fill="none" xmlns="http://www.w3.org/2000/svg">
<circle cx="200" cy="200" r="200" fill="black"/>
<path d="M38 300C60.5656 283.2 75.8959 249.603 68.9784 209.567H63.5016V185H121.693C129.029 257.759 103.319 295.756 38 300Z" fill="white" stroke="black" stroke-width="4"/>
<path d="M125.623 126C125.623 147.098 109.515 164 89.8868 164C70.2587 164 54.151 147.098 54.151 126C54.151 104.902 70.2587 88 89.8868 88C109.515 88 125.623 104.902 125.623 126Z" fill="white" stroke="black" stroke-width="4"/>
<path d="M145.327 154.728L141.007 155.016L138.415 146.664C151.855 143.4 161.743 140.136 168.078 136.872C174.415 133.608 177.967 131.784 178.735 131.4C181.231 131.4 182.671 131.592 183.055 131.976C183.823 132.744 184.399 138.888 184.783 150.408C200.143 139.272 214.063 133.704 226.543 133.704C243.055 133.704 254.575 139.464 261.103 150.984C277.231 139.464 292.207 133.704 306.031 133.704C333.871 133.704 347.791 148.008 347.791 176.616V240.552C347.791 244.008 348.655 246.408 350.383 247.752C352.111 248.904 356.335 249.768 363.055 250.344L365.647 261.864L337.423 261L306.319 261.864L304.015 250.344C313.231 249.576 318.703 248.808 320.431 248.04C322.351 247.08 323.311 244.584 323.311 240.552V186.408C323.311 174.12 320.911 165.576 316.111 160.776C311.311 155.784 303.823 153.288 293.647 153.288C283.663 153.288 274.159 156.456 265.135 162.792C266.095 167.592 266.575 172.2 266.575 176.616V240.552C266.575 244.008 267.439 246.408 269.167 247.752C270.895 248.904 275.119 249.768 281.839 250.344L284.431 261.864L256.207 261L225.103 261.864L222.799 250.344C232.015 249.576 237.487 248.808 239.215 248.04C241.135 247.08 242.095 244.584 242.095 240.552V186.408C242.095 174.12 239.695 165.48 234.895 160.488C230.287 155.496 223.375 153 214.159 153C204.943 153 195.343 155.688 185.359 161.064V240.552C185.359 244.008 186.223 246.408 187.951 247.752C189.679 248.904 193.903 249.768 200.623 250.344L203.215 261.864L174.991 261L143.887 261.864L141.583 250.344C150.799 249.576 156.271 248.808 157.999 248.04C159.919 247.08 160.879 244.584 160.879 240.552V173.16C160.879 166.248 159.631 161.448 157.135 158.76C154.639 156.072 150.703 154.728 145.327 154.728Z" fill="white"/>
</svg>
